<?xml version="1.0" standalone="no"?><!DOCTYPE svg PUBLIC "-//W3C//DTD SVG 1.1//EN" "http://www.w3.org/Graphics/SVG/1.1/DTD/svg11.dtd"><svg t="1685199873189" class="icon" viewBox="0 0 1024 1024" version="1.1" xmlns="http://www.w3.org/2000/svg" p-id="4144" width="32" height="32" xmlns:xlink="http://www.w3.org/1999/xlink"><path d="M306.9 299.5c3.5-6.4-33.8-32-37.9-34.1-33.3-17.2-62.2-9.8-79.7 23.2-26 49.2-50.7 112.1-107.1 132.2 31.4 31.5 99.7 54.7 141.1 31.5 0.1 0 83.4-152.3 83.6-152.8z" fill="#FFAB47" p-id="4145"></path><path d="M182.8 478.9c-41.2 0-86.2-19.4-112.7-46-4.2-4.2-5.9-10.2-4.6-15.9 1.3-5.7 5.4-10.4 11-12.4 42.4-15.1 65.1-60 87.1-103.5 3.5-7 7-13.9 10.5-20.5 21.7-41.1 60.1-52.5 102.8-30.5 0.4 0.2 41 24.6 46.5 42.3 1.6 5.3 1.1 10.7-1.4 15.3-1.7 3-83.6 152.8-83.6 152.8-1.5 2.8-3.9 5.2-6.7 6.7-14.3 8.1-31.2 11.7-48.9 11.7zM114.3 424c29.1 17.7 70.1 27 96.6 15.4 11.8-21.5 60.6-110.8 76.2-139.3-7.5-6.8-21.5-16.8-26.1-19.5-25.2-13-43.7-7.8-56.3 16.2-3.4 6.5-6.8 13.2-10.3 20-19.8 38.9-41.8 82.2-80.1 107.2z" fill="#59285E" p-id="4146"></path><path d="M717.6 299.5c-3.5-6.4 33.8-32 37.9-34.1 33.3-17.2 62.2-9.8 79.7 23.2 26 49.2 50.7 112.1 107.1 132.2-31.4 31.5-99.7 54.7-141.1 31.5-0.1 0-83.4-152.3-83.6-152.8z" fill="#FFAB47" p-id="4147"></path><path d="M841.7 478.9c-17.6 0-34.5-3.5-48.9-11.6-2.8-1.6-5.1-3.9-6.7-6.7 0 0-81.8-149.5-83.6-152.8-2.5-4.6-3-10-1.4-15.3 5.4-17.8 46.1-42.1 46.5-42.3 42.6-22 81-10.6 102.7 30.5 3.5 6.6 7 13.5 10.5 20.5 22 43.5 44.8 88.4 87.1 103.5 5.6 2 9.7 6.7 11 12.4 1.3 5.7-0.4 11.8-4.6 15.9-26.4 26.5-71.5 45.9-112.6 45.9z m-28.1-39.6c26.5 11.7 67.4 2.4 96.6-15.4-38.3-25-60.3-68.3-80-107.3-3.5-6.8-6.9-13.5-10.3-20-12.6-23.9-31.1-29.1-56.6-16-4.5 2.6-18.4 12.6-25.9 19.4 15.6 28.5 64.5 117.8 76.2 139.3z" fill="#59285E" p-id="4148"></path><path d="M813.1 543.6c0 162.9-134.7 274-300.8 274s-300.8-111-300.8-274 134.7-337.2 300.8-337.2 300.8 174.2 300.8 337.2z" fill="#FFAB47" p-id="4149"></path><path d="M512.3 834.7c-181.3 0-318-125.2-318-291.2 0-167.3 136-354.4 318-354.4s318 187.1 318 354.4c-0.1 166.1-136.8 291.2-318 291.2z m0-611.1c-159.7 0-283.6 172-283.6 320 0 148.8 119.3 256.8 283.6 256.8s283.6-108 283.6-256.8c0-148-123.9-320-283.6-320z" fill="#59285E" p-id="4150"></path><path d="M638.8 615.5c0 52.2-56.6 94.6-126.5 94.6s-126.5-42.4-126.5-94.6c0-52.2 56.6-113.1 126.5-113.1s126.5 60.9 126.5 113.1z" fill="#FCECDB" p-id="4151"></path><path d="M512.3 727.3c-79.2 0-143.7-50.2-143.7-111.8 0-60.3 62.8-130.3 143.7-130.3S656 555.3 656 615.5c0 61.7-64.5 111.8-143.7 111.8z m0-207.7c-60.6 0-109.3 52.5-109.3 95.9 0 42.7 49.1 77.4 109.3 77.4 60.3 0 109.3-34.7 109.3-77.4 0-43.4-48.8-95.9-109.3-95.9z" fill="#59285E" p-id="4152"></path><path d="M433.5 614.6a28.6 40.6 0 1 0 57.2 0 28.6 40.6 0 1 0-57.2 0Z" fill="#EE7725" p-id="4153"></path><path d="M462.1 672.4c-25.7 0-45.8-25.4-45.8-57.8s20.1-57.8 45.8-57.8c25.7 0 45.8 25.4 45.8 57.8 0.1 32.4-20.1 57.8-45.8 57.8z m0-81.2c-4 0-11.5 8.9-11.5 23.4 0 14.5 7.4 23.4 11.5 23.4s11.5-8.9 11.5-23.4c0-14.5-7.4-23.4-11.5-23.4z" fill="#59285E" p-id="4154"></path><path d="M533.8 614.6a28.6 40.6 0 1 0 57.2 0 28.6 40.6 0 1 0-57.2 0Z" fill="#EE7725" p-id="4155"></path><path d="M562.4 672.4c-25.7 0-45.8-25.4-45.8-57.8s20.1-57.8 45.8-57.8c25.7 0 45.8 25.4 45.8 57.8s-20.1 57.8-45.8 57.8z m0-81.2c-4 0-11.5 8.9-11.5 23.4 0 14.5 7.4 23.4 11.5 23.4 4 0 11.5-8.9 11.5-23.4 0-14.5-7.5-23.4-11.5-23.4z" fill="#59285E" p-id="4156"></path><path d="M395.3 363.9v76.4" fill="#FFF3E1" p-id="4157"></path><path d="M395.3 457.5c-9.5 0-17.2-7.7-17.2-17.2v-76.4c0-9.5 7.7-17.2 17.2-17.2s17.2 7.7 17.2 17.2v76.4c0 9.5-7.7 17.2-17.2 17.2z" fill="#59285E" p-id="4158"></path><path d="M629.2 363.9v76.4" fill="#FFF3E1" p-id="4159"></path><path d="M629.2 457.5c-9.5 0-17.2-7.7-17.2-17.2v-76.4c0-9.5 7.7-17.2 17.2-17.2s17.2 7.7 17.2 17.2v76.4c0 9.5-7.7 17.2-17.2 17.2z" fill="#59285E" p-id="4160"></path></svg>